<svg width="50" height="50" viewBox="0 0 50 50" fill="none" xmlns="http://www.w3.org/2000/svg">
<rect width="50" height="50" rx="8" fill="#C1CEE8"/>
<path d="M29.1172 28.125C27.5312 28.125 26.8203 29 24.25 29C21.625 29 20.9141 28.125 19.3281 28.125C15.2812 28.125 12 31.4609 12 35.5078V36.875C12 38.3516 13.1484 39.5 14.625 39.5H33.875C35.2969 39.5 36.5 38.3516 36.5 36.875V35.5078C36.5 31.4609 33.1641 28.125 29.1172 28.125ZM33.875 36.875H14.625V35.5078C14.625 32.8828 16.7031 30.75 19.3281 30.75C20.1484 30.75 21.4062 31.625 24.25 31.625C27.0391 31.625 28.2969 30.75 29.1172 30.75C31.7422 30.75 33.875 32.8828 33.875 35.5078V36.875ZM24.25 27.25C28.5703 27.25 32.125 23.75 32.125 19.375C32.125 15.0547 28.5703 11.5 24.25 11.5C19.875 11.5 16.375 15.0547 16.375 19.375C16.375 23.75 19.875 27.25 24.25 27.25ZM24.25 14.125C27.0938 14.125 29.5 16.5312 29.5 19.375C29.5 22.2734 27.0938 24.625 24.25 24.625C21.3516 24.625 19 22.2734 19 19.375C19 16.5312 21.3516 14.125 24.25 14.125Z" fill="#313131"/>
</svg>
