<svg width="30" height="25" viewBox="0 0 30 25" fill="none" xmlns="http://www.w3.org/2000/svg">
<path d="M23.25 10.8433C19.5 10.8433 16.5 13.8901 16.5 17.5933C16.5 21.3433 19.5 24.3433 23.25 24.3433C26.9531 24.3433 30 21.3433 30 17.5933C30 13.8901 26.9531 10.8433 23.25 10.8433ZM26.25 17.9214C26.25 18.1558 26.0156 18.3433 25.7812 18.3433H22.9219C22.6875 18.3433 22.5 18.1558 22.5 17.9214V14.312C22.5 14.0776 22.6875 13.8901 22.9219 13.8901H23.5312C23.7656 13.8901 24 14.0776 24 14.312V16.8433H25.7812C26.0156 16.8433 26.25 17.0776 26.25 17.312V17.9214ZM10.125 15.3433H13.875C14.4844 15.3433 15 14.8745 15 14.2183V13.0933H16.3125C16.9219 12.2495 17.625 11.4526 18.5156 10.8433H2.25V7.37451C2.25 7.23389 2.34375 7.09326 2.53125 7.09326H21.4688C21.6094 7.09326 21.75 7.23389 21.75 7.37451V9.53076C22.2188 9.43701 22.7344 9.34326 23.25 9.34326C23.4844 9.34326 23.7188 9.39014 24 9.39014V7.09326C24 5.87451 22.9688 4.84326 21.75 4.84326H18V2.59326C18 1.37451 16.9688 0.343262 15.75 0.343262H8.25C6.98438 0.343262 6 1.37451 6 2.59326V4.84326H2.25C0.984375 4.84326 0 5.87451 0 7.09326V19.0933C0 20.3589 0.984375 21.3433 2.25 21.3433H15.8906C15.5156 20.687 15.2812 19.8901 15.1406 19.0933H2.53125C2.34375 19.0933 2.25 18.9995 2.25 18.812V13.0933H9V14.2183C9 14.8745 9.46875 15.3433 10.125 15.3433ZM8.25 2.59326H15.75V4.84326H8.25V2.59326Z" fill="#4380E5"/>
</svg>
