<svg width="28" height="29" viewBox="0 0 28 29" fill="none" xmlns="http://www.w3.org/2000/svg">
<path d="M27.5625 14.5C27.5625 7.0625 21.4375 0.9375 14 0.9375C6.50781 0.9375 0.4375 7.0625 0.4375 14.5C0.4375 21.9922 6.50781 28.0625 14 28.0625C21.4375 28.0625 27.5625 21.9922 27.5625 14.5ZM12.4141 21.7188C12.0859 22.0469 11.4844 22.0469 11.1562 21.7188L5.46875 16.0312C5.14062 15.7031 5.14062 15.1016 5.46875 14.7734L6.72656 13.5703C7.05469 13.1875 7.60156 13.1875 7.92969 13.5703L11.8125 17.3984L20.0156 9.19531C20.3438 8.8125 20.8906 8.8125 21.2188 9.19531L22.4766 10.3984C22.8047 10.7266 22.8047 11.3281 22.4766 11.6562L12.4141 21.7188Z" fill="#5452F6"/>
</svg>
