<svg width="50" height="50" viewBox="0 0 50 50" fill="none" xmlns="http://www.w3.org/2000/svg">
<rect width="50" height="50" rx="8" fill="#C1CEE8"/>
<path d="M25 20.6875C22.3203 20.6875 20.1875 22.875 20.1875 25.5C20.1875 28.1797 22.3203 30.3125 25 30.3125C27.625 30.3125 29.8125 28.1797 29.8125 25.5C29.8125 22.875 27.625 20.6875 25 20.6875ZM25 27.6875C23.7422 27.6875 22.8125 26.7578 22.8125 25.5C22.8125 24.2969 23.7422 23.3125 25 23.3125C26.2031 23.3125 27.1875 24.2969 27.1875 25.5C27.1875 26.7578 26.2031 27.6875 25 27.6875ZM38.125 24.1875H35.3906C34.7891 19.4844 31.0156 15.7109 26.3125 15.1094V12.375C26.3125 11.9375 25.875 11.5 25.4375 11.5H24.5625C24.0703 11.5 23.6875 11.9375 23.6875 12.375V15.1094C18.9297 15.7109 15.1562 19.4844 14.5547 24.1875H11.875C11.3828 24.1875 11 24.625 11 25.0625V25.9375C11 26.4297 11.3828 26.8125 11.875 26.8125H14.5547C15.1562 31.5703 18.9297 35.3438 23.6875 35.9453V38.625C23.6875 39.1172 24.0703 39.5 24.5625 39.5H25.4375C25.875 39.5 26.3125 39.1172 26.3125 38.625V35.9453C31.0156 35.3438 34.7891 31.5703 35.3906 26.8125H38.125C38.5625 26.8125 39 26.4297 39 25.9375V25.0625C39 24.625 38.5625 24.1875 38.125 24.1875ZM25 33.375C20.625 33.375 17.125 29.875 17.125 25.5C17.125 21.1797 20.625 17.625 25 17.625C29.3203 17.625 32.875 21.1797 32.875 25.5C32.875 29.875 29.3203 33.375 25 33.375Z" fill="#313131"/>
</svg>
