<svg width="50" height="50" viewBox="0 0 50 50" fill="none" xmlns="http://www.w3.org/2000/svg">
<rect width="50" height="50" rx="8" fill="#C1CEE8"/>
<path d="M19.25 27.25C23.5703 27.25 27.125 23.75 27.125 19.375C27.125 15.0547 23.5703 11.5 19.25 11.5C14.875 11.5 11.375 15.0547 11.375 19.375C11.375 23.75 14.875 27.25 19.25 27.25ZM19.25 14.125C22.0938 14.125 24.5 16.5312 24.5 19.375C24.5 22.2734 22.0938 24.625 19.25 24.625C16.3516 24.625 14 22.2734 14 19.375C14 16.5312 16.3516 14.125 19.25 14.125ZM24.1172 28.125C22.5312 28.125 21.8203 29 19.25 29C16.625 29 15.9141 28.125 14.3281 28.125C10.2812 28.125 7 31.4609 7 35.5078V36.875C7 38.3516 8.14844 39.5 9.625 39.5H28.875C30.2969 39.5 31.5 38.3516 31.5 36.875V35.5078C31.5 31.4609 28.1641 28.125 24.1172 28.125ZM28.875 36.875H9.625V35.5078C9.625 32.8828 11.7031 30.75 14.3281 30.75C15.1484 30.75 16.4062 31.625 19.25 31.625C22.0391 31.625 23.2969 30.75 24.1172 30.75C26.7422 30.75 28.875 32.8828 28.875 35.5078V36.875ZM41.125 23.3125H37.1875V19.375C37.1875 18.9375 36.75 18.5 36.3125 18.5H35.4375C34.9453 18.5 34.5625 18.9375 34.5625 19.375V23.3125H30.625C30.1328 23.3125 29.75 23.75 29.75 24.1875V25.0625C29.75 25.5547 30.1328 25.9375 30.625 25.9375H34.5625V29.875C34.5625 30.3672 34.9453 30.75 35.4375 30.75H36.3125C36.75 30.75 37.1875 30.3672 37.1875 29.875V25.9375H41.125C41.5625 25.9375 42 25.5547 42 25.0625V24.1875C42 23.75 41.5625 23.3125 41.125 23.3125Z" fill="#313131"/>
</svg>
