<svg width="50" height="50" viewBox="0 0 50 50" fill="none" xmlns="http://www.w3.org/2000/svg">
<rect width="50" height="50" rx="8" fill="#C1CEE8"/>
<path d="M25 11.9375C17.5078 11.9375 11.4375 18.0625 11.4375 25.5C11.4375 32.9922 17.5078 39.0625 25 39.0625C32.4375 39.0625 38.5625 32.9922 38.5625 25.5C38.5625 18.0625 32.4375 11.9375 25 11.9375ZM25 36.4375C18.9297 36.4375 14.0625 31.5703 14.0625 25.5C14.0625 19.4844 18.9297 14.5625 25 14.5625C31.0156 14.5625 35.9375 19.4844 35.9375 25.5C35.9375 31.5703 31.0156 36.4375 25 36.4375ZM31.0156 32.0078C28.1172 26.7031 28.2812 26.9766 28.1172 26.7578C29.4297 25.9922 30.25 24.4609 30.25 22.7109C30.25 19.8672 28.6094 18.0625 24.7266 18.0625H20.4062C20.0234 18.0625 19.75 18.3906 19.75 18.7188V32.2812C19.75 32.6641 20.0234 32.9375 20.4062 32.9375H22.5391C22.8672 32.9375 23.1953 32.6641 23.1953 32.2812V27.7422H24.9453L27.5156 32.6094C27.625 32.8281 27.8438 32.9922 28.1172 32.9922V32.9375H30.4141C30.9609 32.9375 31.2344 32.4453 31.0156 32.0078ZM25 24.625H23.1953V21.125H24.6719C26.4219 21.125 26.8047 21.7812 26.8047 22.875C26.8047 24.0234 26.1484 24.625 25 24.625Z" fill="#313131"/>
</svg>
