<svg width="50" height="50" viewBox="0 0 50 50" fill="none" xmlns="http://www.w3.org/2000/svg">
<rect width="50" height="50" rx="8" fill="#C1CEE8"/>
<path d="M34.6172 20.6875C34.1797 19.9219 33.3594 19.4297 32.4844 19.4297H27.2891L28.875 14.6719C29.0938 13.9062 28.9297 13.1406 28.4375 12.4844C27.9453 11.8828 27.2344 11.5 26.4688 11.5H19.3047C18.0469 11.5 17.0078 12.4844 16.8438 13.5781L14 25.1719C13.8906 25.9375 14.1094 26.6484 14.6016 27.25C15.0938 27.7969 15.8594 28.125 16.625 28.125H21.9844L20.0703 36.4375C19.9062 37.2031 20.0703 37.9688 20.5078 38.5703C21 39.1719 21.7109 39.5 22.4766 39.5C23.4062 39.5 24.2266 39.0625 24.6094 38.3516L34.6172 23.2031C35.1094 22.4375 35.1094 21.5078 34.6172 20.6875ZM22.75 36.5469L25.2656 25.5H16.5703L19.3047 14.125H26.3047L23.6797 22.0547H32.2656L22.75 36.5469Z" fill="#313131"/>
</svg>
