<svg width="50" height="50" viewBox="0 0 50 50" fill="none" xmlns="http://www.w3.org/2000/svg">
<rect width="50" height="50" rx="8" fill="#C1CEE8"/>
<path d="M13.3984 26.7031C13.7266 27.0312 14.3281 27.0312 14.6562 26.7031L17.5 23.8594L22.0938 28.5078C22.4219 28.8359 23.0234 28.8359 23.3516 28.5078L29.3672 22.4922L31.0078 24.0781C31.8281 24.9531 33.25 24.3516 33.25 23.1484V17.625C33.25 17.1875 32.8125 16.75 32.375 16.75H26.8516C25.6484 16.75 25.0469 18.1719 25.9219 18.9922L27.5078 20.6328L22.75 25.4453L18.1016 20.7969C17.7734 20.4688 17.1719 20.4688 16.8438 20.7969L12.7969 24.8438C12.4688 25.1719 12.4688 25.7734 12.7969 26.1016L13.3984 26.7031ZM34.125 33.375H9.625V15.875C9.625 15.4375 9.1875 15 8.75 15H7.875C7.38281 15 7 15.4375 7 15.875V34.25C7 35.2344 7.76562 36 8.75 36H34.125C34.5625 36 35 35.6172 35 35.125V34.25C35 33.8125 34.5625 33.375 34.125 33.375Z" fill="#313131"/>
</svg>
