<svg width="50" height="50" viewBox="0 0 50 50" fill="none" xmlns="http://www.w3.org/2000/svg">
<rect width="50" height="50" rx="8" fill="#C1CEE8"/>
<path d="M32.875 13.25H13.625C12.1484 13.25 11 14.4531 11 15.875V35.125C11 36.6016 12.1484 37.75 13.625 37.75H32.875C34.2969 37.75 35.5 36.6016 35.5 35.125V15.875C35.5 14.4531 34.2969 13.25 32.875 13.25ZM32.5469 35.125H13.9531C13.7344 35.125 13.625 35.0156 13.625 34.7969V16.2031C13.625 16.0391 13.7344 15.875 13.9531 15.875H32.5469C32.7109 15.875 32.875 16.0391 32.875 16.2031V34.7969C32.875 35.0156 32.7109 35.125 32.5469 35.125Z" fill="#313131"/>
</svg>
