<svg width="50" height="50" viewBox="0 0 50 50" fill="none" xmlns="http://www.w3.org/2000/svg">
<rect width="50" height="50" rx="8" fill="#C1CEE8"/>
<path d="M34.6797 22.1094L31.8906 19.3203C31.3984 18.8281 30.7422 18.5 30.0312 18.5H28.5V15.875C28.5 14.4531 27.2969 13.25 25.875 13.25H22.4844C21.9922 12.2656 20.9531 11.5 19.75 11.5C18.4922 11.5 17.4531 12.2656 16.9609 13.25H13.625C12.1484 13.25 11 14.4531 11 15.875V31.625C11 33.1016 12.1484 34.25 13.625 34.25H18V36.875C18 38.3516 19.1484 39.5 20.625 39.5H32.875C34.2969 39.5 35.5 38.3516 35.5 36.875V23.9688C35.5 23.2578 35.1719 22.6016 34.6797 22.1094ZM30.0859 21.2344L32.7656 23.9141C32.8203 23.9688 32.875 24.0234 32.875 24.1328V24.625H29.375V21.125H29.8672C29.9766 21.125 30.0312 21.1797 30.0859 21.2344ZM19.75 13.5781C20.2422 13.5781 20.7344 14.0703 20.7344 14.5625C20.7344 15.1094 20.2422 15.5469 19.75 15.5469C19.2031 15.5469 18.7656 15.1094 18.7656 14.5625C18.7656 14.0703 19.2031 13.5781 19.75 13.5781ZM18 21.125V31.625H13.9531C13.7344 31.625 13.625 31.5156 13.625 31.2969V16.2031C13.625 16.0391 13.7344 15.875 13.9531 15.875H16.9609C17.4531 16.9141 18.4922 17.625 19.75 17.625C20.9531 17.625 21.9922 16.9141 22.4844 15.875H25.5469C25.7109 15.875 25.875 16.0391 25.875 16.2031V18.5H20.625C19.1484 18.5 18 19.7031 18 21.125ZM32.5469 36.875H20.9531C20.7344 36.875 20.625 36.7656 20.625 36.5469V21.4531C20.625 21.2891 20.7344 21.125 20.9531 21.125H26.75V25.9375C26.75 26.7031 27.2969 27.25 28.0625 27.25H32.875V36.5469C32.875 36.7656 32.7109 36.875 32.5469 36.875Z" fill="#313131"/>
</svg>
