<svg width="26" height="25" viewBox="0 0 26 25" fill="none" xmlns="http://www.w3.org/2000/svg">
<path d="M24.2969 8.64014L23.2188 7.56201C22.6094 6.90576 21.6719 6.76514 20.875 7.04639L18.2969 4.46826C18.5781 3.67139 18.4375 2.73389 17.7812 2.12451L16.7031 1.04639C15.8125 0.155762 14.4062 0.155762 13.5156 1.04639L8.64062 5.87451C7.79688 6.76514 7.79688 8.17139 8.64062 9.06201L9.76562 10.1401C10.375 10.7964 11.3125 10.9839 12.1094 10.6558L12.5781 11.1714L9.95312 13.7964C8.92188 12.7651 7.51562 12.9058 6.67188 13.7495L1.65625 18.7651C0.765625 19.6558 0.765625 21.1089 1.65625 21.9526L3.39062 23.687C4.23438 24.5776 5.6875 24.5776 6.57812 23.687L11.5938 18.6714C12.4375 17.8276 12.5781 16.4214 11.5469 15.3901L14.1719 12.7651L14.6875 13.2339C14.3594 14.0308 14.5469 14.9683 15.2031 15.5776L16.375 16.7964C17.2188 17.5933 18.5312 17.5933 19.375 16.7964L24.2969 11.8276C25.1875 10.937 25.1875 9.53076 24.2969 8.64014ZM4.98438 22.1401L3.25 20.3589L8.26562 15.3433L10 17.0776L4.98438 22.1401ZM17.875 15.1089L16.7969 13.9839L17.5 13.3276L12.0156 7.84326L11.3594 8.54639L10.2344 7.46826L15.1094 2.59326L16.1875 3.71826L15.3906 4.46826L20.875 9.95264L21.625 9.15576L22.75 10.2339L17.875 15.1089Z" fill="#4380E5"/>
</svg>
