<svg width="67" height="68" viewBox="0 0 67 68" fill="none" xmlns="http://www.w3.org/2000/svg">
<rect y="0.547119" width="67" height="67" rx="8" fill="#EEEEFF"/>
<path d="M49.0625 29.6096L47.625 28.1721C46.8125 27.2971 45.5625 27.1096 44.5 27.4846L41.0625 24.0471C41.4375 22.9846 41.25 21.7346 40.375 20.9221L38.9375 19.4846C37.75 18.2971 35.875 18.2971 34.6875 19.4846L28.1875 25.9221C27.0625 27.1096 27.0625 28.9846 28.1875 30.1721L29.6875 31.6096C30.5 32.4846 31.75 32.7346 32.8125 32.2971L33.4375 32.9846L29.9375 36.4846C28.5625 35.1096 26.6875 35.2971 25.5625 36.4221L18.875 43.1096C17.6875 44.2971 17.6875 46.2346 18.875 47.3596L21.1875 49.6721C22.3125 50.8596 24.25 50.8596 25.4375 49.6721L32.125 42.9846C33.25 41.8596 33.4375 39.9846 32.0625 38.6096L35.5625 35.1096L36.25 35.7346C35.8125 36.7971 36.0625 38.0471 36.9375 38.8596L38.5 40.4846C39.625 41.5471 41.375 41.5471 42.5 40.4846L49.0625 33.8596C50.25 32.6721 50.25 30.7971 49.0625 29.6096ZM23.3125 47.6096L21 45.2346L27.6875 38.5471L30 40.8596L23.3125 47.6096ZM40.5 38.2346L39.0625 36.7346L40 35.8596L32.6875 28.5471L31.8125 29.4846L30.3125 28.0471L36.8125 21.5471L38.25 23.0471L37.1875 24.0471L44.5 31.3596L45.5 30.2971L47 31.7346L40.5 38.2346Z" fill="#313131"/>
</svg>
