<svg width="21" height="24" viewBox="0 0 21 24" fill="none" xmlns="http://www.w3.org/2000/svg">
<path d="M4.92188 3.9375V7.96875C4.59375 7.875 4.21875 7.875 3.89062 7.875C1.64062 7.875 0 9.51562 0 12.1875C0 14.2969 2.25 14.8594 3.65625 15.7031C4.26562 16.0781 4.78125 16.5 5.25 16.9219V16.9688C6.04688 17.6719 6.375 18.0469 6.375 18.375V18.4688C6.14062 18.75 6 19.125 6 19.5V22.5C6 23.3438 6.5625 24 7.3125 24H18.1406C18.8906 24 19.5 23.3438 19.5 22.5V19.5C19.5 19.125 19.3125 18.75 19.125 18.4688V18.375C19.125 17.0156 21 15.2344 21 12.375V11.3906C21 8.48438 19.1719 6.75 16.6875 6.70312C15.8906 6.14062 14.8125 5.85938 13.7812 5.95312C13.4531 5.8125 13.0781 5.67188 12.75 5.57812V3.9375C12.75 1.78125 10.9688 0 8.8125 0C6.70312 0 4.92188 1.82812 4.92188 3.9375ZM10.5 3.9375V8.20312C11.1562 7.59375 12.4688 7.5 13.3594 8.4375C14.25 7.875 15.4688 8.34375 15.8438 9.04688C17.6719 8.71875 18.75 9.51562 18.75 11.3906V12.375C18.75 14.5312 17.0625 16.0312 16.875 18H8.57812C8.4375 16.8281 7.59375 16.0312 6.70312 15.2344C6.14062 14.7188 5.53125 14.25 4.875 13.8281C3.75 13.125 2.25 12.5625 2.25 12.1875C2.25 11.0625 2.625 10.125 3.89062 10.125C5.53125 10.125 6.375 11.3438 7.17188 11.3438V3.9375C7.17188 3.04688 7.96875 2.25 8.8125 2.25C9.70312 2.25 10.5 3.04688 10.5 3.9375ZM16.5 19.875C17.1094 19.875 17.625 20.3906 17.625 21C17.625 21.6562 17.1094 22.125 16.5 22.125C15.8438 22.125 15.375 21.6562 15.375 21C15.375 20.3906 15.8438 19.875 16.5 19.875Z" fill="#0053FC"/>
</svg>
