<svg width="189" height="14" viewBox="0 0 189 14" fill="none" xmlns="http://www.w3.org/2000/svg">
<path d="M64.6795 2.91693C64.8411 2.75607 64.9541 2.56294 65.0868 2.32499L67.3238 2.41191L68.2581 1.74928C68.7693 1.93628 68.9357 2.79361 70.1205 2.1711C70.0504 2.21396 70.3503 1.9977 70.6512 1.76629L75.2261 1.94404L75.9371 1.3487C77.448 1.1795 79.0795 1.51638 80.7222 1.39787L81.38 0.846054L88.932 1.13947L89.8803 0.522971L91.1334 1.25539L92.3929 0.514236L105.327 1.01677L106.212 0.337022L131.559 1.32183L132.467 2.1776L134.128 1.4976L138.467 1.6662L139.239 2.27356C140.269 2.79978 141.172 1.81688 142.225 1.70582L143.071 2.46803L149.194 2.7059L150.043 2.05517L150.55 2.57629C150.647 2.64084 150.741 2.76602 150.842 2.76994C154.929 2.92874 159.033 3.08819 163.019 3.24307L164.011 4.11726L165.537 3.41688L168.515 3.53255L169.133 4.16435L171.454 4.25453L172.284 3.64861L173.033 4.34627L174.53 4.40443L175.396 3.76951C175.84 4.22738 176.268 4.65429 176.697 5.09635C177.562 5.28191 178.424 5.51294 179.103 4.62765L182.971 4.77796L183.721 5.46046C184.537 5.6289 185.465 5.34587 186.361 5.85171L185.623 6.61312L188.564 8.14043C186.279 8.55307 176.854 8.29322 168.787 7.59995L168.231 7.04655L165.91 6.95637L165.062 7.57679L160.488 7.39904C160.248 7.17703 159.977 6.92339 159.722 6.68557C159.527 6.84512 159.332 7.00467 158.959 7.30926C158.028 7.36426 156.904 7.27501 155.797 7.1864L155.194 6.57042L151.292 6.41881L150.449 6.96344L147.489 6.84842C146.912 6.355 146.156 6.03694 145.173 6.1203L144.29 6.76973L139.749 6.59329L138.863 7.28819L133.498 7.07973C133.303 7.23928 133.107 7.39883 132.912 7.55838C132.807 7.61509 132.698 7.74759 132.597 7.74367C124.406 7.42542 116.215 7.10717 108.108 6.79219L107.032 7.57085L105.565 6.73899C105.05 6.61262 104.171 6.38094 103.493 7.26623L83.5617 6.49184L82.6087 7.18413L79.5644 7.06585L78.8317 6.36885C78.2682 6.21021 77.8992 6.45417 77.474 6.78712C76.8182 7.30862 76.3378 6.89491 75.835 6.298L74.9577 6.85648L72.8384 6.77414L71.8181 7.46382L65.7967 7.22987L64.8437 7.92216L57.2245 7.62613L56.3219 8.32038L49.4091 8.05179L48.7149 8.64778L46.4443 8.55956L45.4389 9.2802L44.8203 8.6484L41.6077 8.52359L40.8257 9.17693L36.974 9.02729L36.2275 9.65163L31.6526 9.47388L30.7501 10.1681L27.6889 10.0492L26.9947 10.6452L23.8999 10.5249C23.5626 10.8005 23.3833 10.9759 23.1889 11.1203C22.5545 11.5666 21.6705 10.8637 21.0725 11.5394C20.5652 12.1123 19.9083 11.8285 19.3 11.8504C18.8104 11.8618 18.3114 11.7512 17.8984 12.1606C17.18 12.8772 15.8034 11.9577 15.228 13.0901L11.3427 12.9391L10.5296 12.1782C10.3344 12.6113 10.1579 13.0146 9.98038 13.4332C9.13198 13.7953 8.25546 13.5181 7.31356 13.4815L6.87512 12.1122L5.96322 12.6845L5.22401 12.0936L4.37845 12.6837L2.04053 12.5929L0.324658 10.6118C0.298437 10.2157 0.24883 9.65161 0.539344 9.03994L3.06228 9.13796L3.81831 9.72951L6.94674 9.85106L7.63999 9.27024L9.86018 9.3565L10.8132 8.66421L13.0502 8.75112L13.9359 8.05622C15.1974 8.10523 16.4925 8.15555 17.7708 8.20521C17.966 8.04567 18.1613 7.88612 18.4818 7.60988L20.786 7.69941L21.6036 7.01705L23.7565 7.1007L24.8272 6.41299L28.3425 6.54956L31.2577 5.2042L36.3708 5.40286L37.2565 4.70796C39.2917 4.78703 41.3437 4.86675 43.3957 4.94648C43.5909 4.78693 43.7862 4.62738 44.1067 4.35115L47.9584 4.50079L48.8114 3.78943L52.6631 3.93908L53.5161 3.22771L58.1246 3.40676L58.8889 2.76792L62.6565 2.9143L63.574 2.25102C63.9123 2.50727 64.2833 2.77998 64.6468 2.90047C64.7739 3.30045 64.6899 3.84417 65.3925 3.38526C65.2009 3.21068 64.9925 3.03545 64.6468 2.90047L64.6795 2.91693Z" fill="#0053FC"/>
</svg>
