<svg width="67" height="68" viewBox="0 0 67 68" fill="none" xmlns="http://www.w3.org/2000/svg">
<rect y="0.0942383" width="67" height="67" rx="8" fill="#EEEEFF"/>
<path d="M53 40.0942H50V22.0942C50 19.9067 48.1875 18.0942 46 18.0942H22C19.75 18.0942 18 19.9067 18 22.0942V40.0942H15C14.4375 40.0942 14 40.5942 14 41.0942V44.0942C14 47.4067 16.6875 50.0942 20 50.0942H48C51.25 50.0942 54 47.4067 54 44.0942V41.0942C54 40.5942 53.5 40.0942 53 40.0942ZM21 22.0942C21 21.5942 21.4375 21.0942 22 21.0942H46C46.5 21.0942 47 21.5942 47 22.0942V40.0942H21V22.0942ZM51 44.0942C51 45.7817 49.625 47.0942 48 47.0942H20C18.3125 47.0942 17 45.7817 17 44.0942V43.0942H28.25C28.625 43.7192 29.25 44.0942 30 44.0942H38C38.6875 44.0942 39.3125 43.7192 39.6875 43.0942H51V44.0942Z" fill="#313131"/>
</svg>
