<svg width="50" height="50" viewBox="0 0 50 50" fill="none" xmlns="http://www.w3.org/2000/svg">
<rect width="50" height="50" rx="8" fill="#C1CEE8"/>
<path d="M28.5391 24.7891L22.1953 22.9297C21.3203 22.7109 20.6641 22 20.5 21.125C20.2812 19.7031 21.375 18.5 22.7422 18.5H26.7344C27.6094 18.5 28.4844 18.7734 29.1953 19.3203C29.5234 19.5391 30.0156 19.4844 30.2891 19.2109L31.5469 17.9531C31.9297 17.5703 31.875 16.9688 31.4922 16.6406C30.125 15.6016 28.4844 15 26.7344 15H26.625V12.375C26.625 11.9375 26.1875 11.5 25.75 11.5H24C23.5078 11.5 23.125 11.9375 23.125 12.375V15H22.9609C20.2812 15 17.7656 16.75 17.1641 19.375C16.3984 22.4375 18.2578 25.4453 21.1562 26.2656L27.5 28.125C28.375 28.3438 29.0859 29.0547 29.1953 29.9297C29.4141 31.2969 28.3203 32.5 27.0078 32.5H22.9609C22.0859 32.5 21.2109 32.2266 20.5 31.7344C20.1719 31.5156 19.6797 31.5703 19.4062 31.8438L18.1484 33.1016C17.7656 33.4844 17.8203 34.0859 18.2031 34.4141C19.5703 35.4531 21.2109 36 22.9609 36H23.125V38.625C23.125 39.1172 23.5078 39.5 24 39.5H25.75C26.1875 39.5 26.625 39.1172 26.625 38.625V36H26.7344C29.4141 36 31.9297 34.3047 32.5312 31.6797C33.2969 28.6172 31.4375 25.6094 28.5391 24.7891Z" fill="#313131"/>
</svg>
