<svg width="67" height="67" viewBox="0 0 67 67" fill="none" xmlns="http://www.w3.org/2000/svg">
<rect width="67" height="67" rx="8" fill="#EEEEFF"/>
<path d="M53.8125 30.5C53.75 30.4375 53.625 30.375 53.4375 30.375C51.1875 30.5 48.125 32.25 45.75 33.625C44.75 34.1875 43.875 34.6875 43.1875 35C41.25 35.875 39.5625 36.625 38.0625 36.625C37.4375 36.625 36.9375 36.4375 36.5625 36.0625C36 35.375 36 34.1875 36.1875 32.6875C36.4375 30.875 36.1875 29.5 35.625 28.8125C35.25 28.4375 34.6875 28.25 34 28.3125C32.25 28.375 29.1875 30.75 23.4375 36.375L21.75 38.0625L25.3125 29C26.125 26.9375 25.5625 24.625 23.8125 23.1875C22.4375 22.0625 20.125 21.375 17.75 22.9375L14.25 25.375C14 25.5 13.875 25.8125 14.0625 26.0625L15.125 27.8125C15.25 27.9375 15.3125 28.0625 15.5 28.0625C15.625 28.125 15.75 28.0625 15.875 28L19.5625 25.4375C19.9375 25.25 20.25 25.125 20.625 25.125C21.0625 25.125 21.5 25.3125 21.875 25.625C22.5 26.1875 22.75 27.0625 22.4375 27.875L16.125 43.875C15.9375 44.3125 16 44.9375 16.3125 45.375C16.5 45.6875 16.875 46 17.5625 46C18 46 18.375 45.875 18.625 45.5625C21.375 42.8125 28.5625 35.75 32.25 32.75L33.1875 32L33.0625 33.1875C32.9375 34.9375 32.9375 36.8125 34.25 38.3125C35.125 39.25 36.4375 39.75 38.0625 39.75C40.25 39.75 42.25 38.8125 44.4375 37.875C45.0625 37.5625 46 37 46.9375 36.4375C49.125 35.125 51.625 33.6875 53.5 33.5C53.75 33.5 54 33.25 54 33V30.875C54 30.75 53.9375 30.625 53.8125 30.5Z" fill="#313131"/>
</svg>
