<svg width="31" height="20" viewBox="0 0 31 20" fill="none" xmlns="http://www.w3.org/2000/svg">
<path d="M30.8594 7.71826C30.8125 7.67139 30.7188 7.62451 30.5781 7.62451C28.8906 7.71826 26.5938 9.03076 24.8125 10.062C24.0625 10.4839 23.4062 10.8589 22.8906 11.0933C21.4375 11.7495 20.1719 12.312 19.0469 12.312C18.5781 12.312 18.2031 12.1714 17.9219 11.8901C17.5 11.3745 17.5 10.4839 17.6406 9.35889C17.8281 7.99951 17.6406 6.96826 17.2188 6.45264C16.9375 6.17139 16.5156 6.03076 16 6.07764C14.6875 6.12451 12.3906 7.90576 8.07812 12.1245L6.8125 13.3901L9.48438 6.59326C10.0938 5.04639 9.67188 3.31201 8.35938 2.23389C7.32812 1.39014 5.59375 0.874512 3.8125 2.04639L1.1875 3.87451C1 3.96826 0.90625 4.20264 1.04688 4.39014L1.84375 5.70264C1.9375 5.79639 1.98438 5.89014 2.125 5.89014C2.21875 5.93701 2.3125 5.89014 2.40625 5.84326L5.17188 3.92139C5.45312 3.78076 5.6875 3.68701 5.96875 3.68701C6.29688 3.68701 6.625 3.82764 6.90625 4.06201C7.375 4.48389 7.5625 5.14014 7.32812 5.74951L2.59375 17.7495C2.45312 18.0776 2.5 18.5464 2.73438 18.8745C2.875 19.1089 3.15625 19.3433 3.67188 19.3433C4 19.3433 4.28125 19.2495 4.46875 19.0151C6.53125 16.9526 11.9219 11.6558 14.6875 9.40576L15.3906 8.84326L15.2969 9.73389C15.2031 11.0464 15.2031 12.4526 16.1875 13.5776C16.8438 14.2808 17.8281 14.6558 19.0469 14.6558C20.6875 14.6558 22.1875 13.9526 23.8281 13.2495C24.2969 13.0151 25 12.5933 25.7031 12.1714C27.3438 11.187 29.2188 10.1089 30.625 9.96826C30.8125 9.96826 31 9.78076 31 9.59326V7.99951C31 7.90576 30.9531 7.81201 30.8594 7.71826Z" fill="#4380E5"/>
</svg>
