<svg width="50" height="50" viewBox="0 0 50 50" fill="none" xmlns="http://www.w3.org/2000/svg">
<rect width="50" height="50" rx="8" fill="#C1CEE8"/>
<path d="M37.875 20.9062L29.8906 19.7578L26.2812 12.4844C25.6797 11.2266 23.8203 11.1719 23.1641 12.4844L19.6094 19.7578L11.5703 20.9062C10.1484 21.125 9.60156 22.875 10.6406 23.9141L16.3828 29.5469L15.0156 37.4766C14.7969 38.8984 16.3281 39.9922 17.5859 39.3359L24.75 35.5625L31.8594 39.3359C33.1172 39.9922 34.6484 38.8984 34.4297 37.4766L33.0625 29.5469L38.8047 23.9141C39.8438 22.875 39.2969 21.125 37.875 20.9062ZM30.2188 28.6172L31.5312 36.1641L24.75 32.6094L17.9141 36.1641L19.2266 28.6172L13.7031 23.2578L21.3047 22.1641L24.75 15.2734L28.1406 22.1641L35.7422 23.2578L30.2188 28.6172Z" fill="#313131"/>
</svg>
