<svg width="123" height="10" viewBox="0 0 123 10" fill="none" xmlns="http://www.w3.org/2000/svg">
<path d="M42.0251 2.48903C42.1303 2.38434 42.2039 2.25865 42.2902 2.10379L43.7461 2.16036L44.3541 1.72912C44.6868 1.85081 44.7951 2.40877 45.5661 2.00364C45.5205 2.03153 45.7157 1.89079 45.9115 1.74018L48.8889 1.85586L49.3516 1.46842C50.3349 1.3583 51.3968 1.57754 52.4658 1.50042L52.8939 1.14129L57.8088 1.33225L58.4259 0.931026L59.2415 1.40769L60.0612 0.925341L68.4789 1.25239L69.0547 0.81001L85.5507 1.45093L86.1419 2.00787L87.2224 1.56532L90.0466 1.67504L90.5489 2.07032C91.2191 2.41279 91.8071 1.77311 92.4918 1.70083L93.0429 2.19688L97.0273 2.35169L97.58 1.92819L97.9103 2.26733C97.9735 2.30934 98.0343 2.39081 98.1 2.39337C100.76 2.49671 103.431 2.60048 106.025 2.70128L106.67 3.27021L107.664 2.8144L109.602 2.88967L110.004 3.30085L111.515 3.35954L112.055 2.96521L112.542 3.41925L113.517 3.4571L114.08 3.04389C114.369 3.34188 114.648 3.61971 114.926 3.90741C115.49 4.02817 116.051 4.17853 116.492 3.60237L119.01 3.70019L119.498 4.14437C120.029 4.25399 120.633 4.06979 121.216 4.39899L120.736 4.89453L122.65 5.8885C121.163 6.15705 115.029 5.98794 109.779 5.53676L109.417 5.17661L107.906 5.11792L107.355 5.52169L104.378 5.40601C104.222 5.26152 104.045 5.09645 103.879 4.94168C103.752 5.04551 103.625 5.14935 103.383 5.34758C102.777 5.38337 102.045 5.32529 101.325 5.26762L100.932 4.86673L98.3929 4.76807L97.8444 5.12251L95.9179 5.04766C95.5426 4.72654 95.0506 4.51955 94.4109 4.5738L93.8363 4.99645L90.8808 4.88162L90.3043 5.33387L86.8125 5.1982C86.6854 5.30203 86.5583 5.40587 86.4312 5.5097C86.3631 5.54661 86.292 5.63284 86.2263 5.63029C80.8955 5.42317 75.5647 5.21606 70.2886 5.01106L69.5881 5.51782L68.6339 4.97644C68.2988 4.8942 67.7265 4.74342 67.2851 5.31957L54.3138 4.8156L53.6936 5.26614L51.7123 5.18917L51.2355 4.73555C50.8687 4.63231 50.6286 4.79108 50.3519 5.00776C49.925 5.34716 49.6124 5.07792 49.2852 4.68944L48.7142 5.05291L47.335 4.99932L46.671 5.44816L42.7522 5.29591L42.132 5.74645L37.1734 5.5538L36.586 6.00562L32.0871 5.83082L31.6353 6.21869L30.1576 6.16128L29.5033 6.63028L29.1007 6.2191L27.0099 6.13787L26.501 6.56307L23.9943 6.46568L23.5085 6.872L20.5311 6.75632L19.9437 7.20814L17.9515 7.13074L17.4997 7.51861L15.4856 7.44036C15.2661 7.61971 15.1493 7.73383 15.0229 7.8278C14.61 8.1183 14.0346 7.66086 13.6455 8.1006C13.3154 8.47342 12.8878 8.28871 12.4919 8.30299C12.1733 8.31039 11.8485 8.23844 11.5798 8.50487C11.1122 8.97124 10.2163 8.37279 9.84185 9.10976L7.31327 9.01152L6.78413 8.51632C6.65707 8.79814 6.54218 9.06067 6.42667 9.33305C5.87453 9.5687 5.30409 9.38832 4.6911 9.3645L4.40576 8.47335L3.81229 8.84583L3.33121 8.46127L2.78091 8.84531L1.25938 8.7862L0.142684 7.49687C0.125619 7.23911 0.093335 6.87199 0.282403 6.47391L1.92434 6.53771L2.41637 6.92269L4.45237 7.0018L4.90354 6.62379L6.34845 6.67993L6.96867 6.22939L8.42452 6.28595L9.00095 5.8337C9.82192 5.8656 10.6648 5.89835 11.4967 5.93067C11.6238 5.82684 11.7509 5.723 11.9594 5.54322L13.4591 5.60149L13.9911 5.15741L15.3922 5.21185L16.0891 4.76428L18.3768 4.85316L20.274 3.97759L23.6017 4.10688L24.1781 3.65464C25.5026 3.7061 26.8381 3.75798 28.1735 3.80987C28.3006 3.70603 28.4277 3.6022 28.6362 3.42242L31.1429 3.51981L31.6981 3.05685L34.2048 3.15424L34.7599 2.69128L37.7592 2.80781L38.2566 2.39205L40.7085 2.48732L41.3057 2.05565C41.5258 2.22242 41.7673 2.3999 42.0038 2.47831C42.0866 2.73862 42.0319 3.09248 42.4892 2.79382C42.3645 2.6802 42.2289 2.56616 42.0038 2.47831L42.0251 2.48903Z" fill="#00339B"/>
</svg>
