<svg width="124" height="10" viewBox="0 0 124 10" fill="none" xmlns="http://www.w3.org/2000/svg">
<path d="M42.7551 2.48903C42.8603 2.38434 42.9339 2.25865 43.0202 2.10379L44.476 2.16036L45.0841 1.72912C45.4168 1.85081 45.5251 2.40877 46.2961 2.00364C46.2505 2.03153 46.4457 1.89079 46.6415 1.74018L49.6189 1.85586L50.0816 1.46842C51.0649 1.3583 52.1267 1.57754 53.1958 1.50042L53.6239 1.14129L58.5387 1.33225L59.1559 0.931026L59.9715 1.40769L60.7912 0.925341L69.2088 1.25239L69.7847 0.81001L86.2807 1.45093L86.8718 2.00787L87.9524 1.56532L90.7765 1.67504L91.2789 2.07032C91.9491 2.41279 92.5371 1.77311 93.2218 1.70083L93.7728 2.19688L97.7573 2.35169L98.31 1.92819L98.6403 2.26733C98.7035 2.30934 98.7643 2.39081 98.83 2.39337C101.49 2.49671 104.161 2.60048 106.755 2.70128L107.4 3.27021L108.394 2.8144L110.331 2.88967L110.734 3.30085L112.245 3.35954L112.785 2.96521L113.272 3.41925L114.247 3.4571L114.81 3.04389C115.099 3.34188 115.378 3.61971 115.656 3.90741C116.219 4.02817 116.781 4.17853 117.222 3.60237L119.74 3.70019L120.228 4.14437C120.759 4.25399 121.363 4.06979 121.946 4.39899L121.466 4.89453L123.38 5.8885C121.893 6.15705 115.759 5.98794 110.509 5.53676L110.147 5.17661L108.636 5.11792L108.085 5.52169L105.107 5.40601C104.952 5.26152 104.775 5.09645 104.609 4.94168C104.482 5.04551 104.355 5.14935 104.113 5.34758C103.507 5.38337 102.775 5.32529 102.055 5.26762L101.662 4.86673L99.1229 4.76807L98.5744 5.12251L96.6478 5.04766C96.2726 4.72654 95.7806 4.51955 95.1408 4.5738L94.5662 4.99645L91.6108 4.88162L91.0343 5.33387L87.5425 5.1982C87.4154 5.30203 87.2883 5.40587 87.1612 5.5097C87.0931 5.54661 87.022 5.63284 86.9563 5.63029C81.6255 5.42317 76.2946 5.21606 71.0185 5.01106L70.3181 5.51782L69.3638 4.97644C69.0288 4.8942 68.4565 4.74342 68.0151 5.31957L55.0438 4.8156L54.4235 5.26614L52.4423 5.18917L51.9654 4.73555C51.5987 4.63231 51.3585 4.79108 51.0819 5.00776C50.655 5.34716 50.3424 5.07792 50.0152 4.68944L49.4442 5.05291L48.065 4.99932L47.401 5.44816L43.4822 5.29591L42.862 5.74645L37.9033 5.5538L37.316 6.00562L32.8171 5.83082L32.3653 6.21869L30.8875 6.16128L30.2333 6.63028L29.8306 6.2191L27.7399 6.13787L27.231 6.56307L24.7243 6.46568L24.2384 6.872L21.2611 6.75632L20.6737 7.20814L18.6815 7.13074L18.2297 7.51861L16.2156 7.44036C15.9961 7.61971 15.8793 7.73383 15.7528 7.8278C15.34 8.1183 14.7646 7.66086 14.3755 8.1006C14.0453 8.47342 13.6178 8.28871 13.2219 8.30299C12.9033 8.31039 12.5785 8.23844 12.3098 8.50487C11.8422 8.97124 10.9463 8.37279 10.5718 9.10976L8.04325 9.01152L7.51411 8.51632C7.38705 8.79814 7.27216 9.06067 7.15666 9.33305C6.60451 9.5687 6.03407 9.38832 5.42108 9.3645L5.13574 8.47335L4.54227 8.84583L4.06119 8.46127L3.51089 8.84531L1.98936 8.7862L0.872664 7.49687C0.855599 7.23911 0.823315 6.87199 1.01238 6.47391L2.65432 6.53771L3.14635 6.92269L5.18235 7.0018L5.63352 6.62379L7.07843 6.67993L7.69865 6.22938L9.1545 6.28595L9.73093 5.8337C10.5519 5.8656 11.3948 5.89835 12.2267 5.93067C12.3538 5.82684 12.4808 5.723 12.6894 5.54322L14.189 5.60149L14.7211 5.15741L16.1222 5.21185L16.819 4.76428L19.1068 4.85316L21.004 3.97759L24.3317 4.10688L24.9081 3.65464C26.2326 3.7061 27.5681 3.75798 28.9035 3.80987C29.0306 3.70603 29.1577 3.6022 29.3662 3.42242L31.8729 3.51981L32.4281 3.05685L34.9348 3.15424L35.4899 2.69128L38.4892 2.80781L38.9866 2.39205L41.4385 2.48732L42.0356 2.05565C42.2558 2.22242 42.4973 2.3999 42.7338 2.47831C42.8166 2.73862 42.7619 3.09248 43.2192 2.79382C43.0945 2.6802 42.9588 2.56616 42.7338 2.47831L42.7551 2.48903Z" fill="#0053FC"/>
</svg>
