<svg width="50" height="50" viewBox="0 0 50 50" fill="none" xmlns="http://www.w3.org/2000/svg">
<rect width="50" height="50" rx="8" fill="#C1CEE8"/>
<path d="M25 11.9375C17.5078 11.9375 11.4375 18.0078 11.4375 25.5C11.4375 32.9922 17.5078 39.0625 25 39.0625C32.4922 39.0625 38.5625 32.9922 38.5625 25.5C38.5625 18.0078 32.4922 11.9375 25 11.9375ZM25 36.4375C18.9297 36.4375 14.0625 31.5703 14.0625 25.5C14.0625 19.4844 18.9297 14.5625 25 14.5625C31.0156 14.5625 35.9375 19.4844 35.9375 25.5C35.9375 31.5703 31.0156 36.4375 25 36.4375ZM28.3359 30.75C28.6641 30.9688 29.0469 30.9141 29.2656 30.5859L30.3047 29.2188C30.5234 28.8906 30.4688 28.5078 30.1406 28.2891L26.5312 25.6094V17.8438C26.5312 17.5156 26.2031 17.1875 25.875 17.1875H24.125C23.7422 17.1875 23.4688 17.5156 23.4688 17.8438V26.8672C23.4688 27.0312 23.5234 27.25 23.6875 27.3594L28.3359 30.75Z" fill="#313131"/>
</svg>
