<svg width="50" height="50" viewBox="0 0 50 50" fill="none" xmlns="http://www.w3.org/2000/svg">
<rect width="50" height="50" rx="8" fill="#C1CEE8"/>
<path d="M36.0469 15.0547C32.875 12.375 28.0078 12.7578 25 15.875C21.9375 12.7578 17.0703 12.375 13.8984 15.0547C9.79688 18.5 10.3984 24.1328 13.3516 27.1406L22.9219 36.9297C23.4688 37.4766 24.1797 37.8047 25 37.8047C25.7656 37.8047 26.4766 37.4766 27.0234 36.9297L36.6484 27.1406C39.5469 24.1328 40.1484 18.5 36.0469 15.0547ZM34.7344 25.2812L25.1641 35.0703C25.0547 35.1797 24.9453 35.1797 24.7812 35.0703L15.2109 25.2812C13.1875 23.2578 12.8047 19.4297 15.5938 17.0781C17.7266 15.2734 21.0078 15.5469 23.0859 17.625L25 19.5938L26.9141 17.625C28.9375 15.5469 32.2188 15.2734 34.3516 17.0234C37.1406 19.4297 36.7578 23.2578 34.7344 25.2812Z" fill="#313131"/>
</svg>
