<svg width="35" height="19" viewBox="0 0 35 19" fill="none" xmlns="http://www.w3.org/2000/svg">
<path d="M26.4688 0.75C22.2578 0.75 19.0859 4.52344 17.5 6.92969C15.8594 4.52344 12.7422 0.75 8.47656 0.75C3.77344 0.75 0 4.6875 0 9.5C0 14.3672 3.77344 18.25 8.47656 18.25C12.7422 18.25 15.8594 14.5312 17.5 12.125C19.0859 14.5312 22.2578 18.25 26.4688 18.25C31.1719 18.25 35 14.3672 35 9.5C35 4.6875 31.1719 0.75 26.4688 0.75ZM8.47656 15.625C5.25 15.625 2.625 12.8906 2.625 9.5C2.625 6.16406 5.25 3.375 8.47656 3.375C12.1953 3.375 15.0938 7.91406 15.9688 9.5C15.0938 11.1406 12.1953 15.625 8.47656 15.625ZM26.4688 15.625C22.75 15.625 19.8516 11.1406 18.9766 9.5C19.9062 7.91406 22.75 3.375 26.4688 3.375C29.6953 3.375 32.375 6.16406 32.375 9.5C32.375 12.8906 29.6953 15.625 26.4688 15.625Z" fill="#313131"/>
</svg>
