<svg width="50" height="50" viewBox="0 0 50 50" fill="none" xmlns="http://www.w3.org/2000/svg">
<rect width="50" height="50" rx="8" fill="#C1CEE8"/>
<path d="M22.75 19.375C22.1484 19.4297 21.5469 19.4844 21 19.6484C21.2734 20.0859 21.3828 20.6328 21.4375 21.125C21.4375 22.8203 20.0156 24.1875 18.375 24.1875C17.8281 24.1875 17.2812 24.0781 16.8984 23.8047C16.7344 24.3516 16.625 24.8984 16.625 25.5C16.625 28.8906 19.3594 31.625 22.75 31.625C26.1406 31.625 28.875 28.8906 28.875 25.5C28.875 22.1641 26.1406 19.4297 22.75 19.4297V19.375ZM38.2812 24.7344C35.3281 18.9375 29.4219 15 22.75 15C16.0234 15 10.1172 18.9375 7.16406 24.7344C7.05469 24.9531 7 25.2266 7 25.5C7 25.8281 7.05469 26.1016 7.16406 26.3203C10.1172 32.1172 16.0234 36 22.75 36C29.4219 36 35.3281 32.1172 38.2812 26.3203C38.3906 26.1016 38.4453 25.8281 38.4453 25.5547C38.4453 25.2266 38.3906 24.9531 38.2812 24.7344ZM22.75 33.375C17.3359 33.375 12.3594 30.3672 9.73438 25.5C12.3594 20.6328 17.3359 17.625 22.75 17.625C28.1094 17.625 33.0859 20.6328 35.7109 25.5C33.0859 30.3672 28.1094 33.375 22.75 33.375Z" fill="#313131"/>
</svg>
