<svg width="80" height="60" viewBox="0 0 80 60" fill="none" xmlns="http://www.w3.org/2000/svg">
<path d="M79.8075 18.1219C79.1067 15.8348 76.6805 14.5477 74.3854 15.2445C70.5698 16.4209 66.9715 16.5398 63.8895 16.011C66.2378 11.74 66.2706 7.42802 63.9674 4.14894C61.8034 1.06251 57.9223 -0.503255 54.078 0.144363C50.246 0.800179 47.2911 3.50542 46.1928 7.38703C45.1272 11.1457 46.4756 15.2158 49.8854 18.5564C50.3075 18.9704 50.7583 19.368 51.2501 19.7533C48.1764 24.0284 44.8772 27.6886 41.3567 30.7259C38.3034 33.3697 35.0821 35.5338 31.7051 37.2267C30.5657 37.7964 29.4018 38.317 28.2215 38.7801C26.8239 39.3294 25.3936 39.8048 23.9387 40.2024C14.4879 42.7765 7.36083 40.932 7.2092 40.8951C7.18461 40.891 7.1641 40.8787 7.13951 40.8787C4.86082 40.2803 2.51657 41.6247 1.87723 43.9037C1.29936 45.9408 2.28296 48.0435 4.10263 48.9576C4.34034 49.0805 4.60263 49.183 4.87313 49.2609C5.09854 49.3224 8.50018 50.2569 13.8157 50.2569C14.3731 50.2569 14.951 50.2487 15.5493 50.2241C17.8239 50.1421 20.3854 49.8757 23.1395 49.3142C23.9674 49.1502 24.8075 48.9576 25.6682 48.7321C31.0739 47.3262 37.701 44.5718 44.5452 39.2679C47.1928 37.2144 49.8813 34.7797 52.5329 31.89C54.7337 29.5003 56.9141 26.7992 59.0493 23.7537C60.496 24.1964 62.037 24.5325 63.6518 24.7498C67.701 25.2703 72.2174 24.9998 76.9305 23.5488C79.2214 22.8479 80.5124 20.4173 79.8075 18.126V18.1219ZM56.2379 11.9163C56.1518 12.0679 56.0657 12.2237 55.9797 12.3753C55.9756 12.363 55.9674 12.3589 55.9592 12.3507C54.8034 11.2195 54.4182 10.2111 54.5411 9.75207C54.7788 8.9323 55.1764 8.76015 55.5288 8.69867C55.6149 8.68637 55.6969 8.67817 55.7829 8.67817C56.2214 8.67817 56.6764 8.85442 56.8649 9.12905C57.1272 9.50204 57.0329 10.5022 56.2379 11.9122V11.9163Z" fill="#6D47EE"/>
<path d="M45.4262 41.6368C41.0983 44.9118 36.5164 47.4777 31.7459 49.3099H35.8975L39.627 59.8398H48.6926V50.4166L45.4262 41.6368ZM13.8156 52.675C8.46312 52.675 4.89755 51.7774 4.23771 51.593C3.88525 51.4946 3.55327 51.3757 3.24589 51.2323L0.102459 59.5693L0 59.8439H12.1352L14.6762 52.6668C14.3975 52.6709 14.1107 52.675 13.8156 52.675ZM32.9016 8.00577H19.5164L7.9959 38.6037C8.90164 38.8045 13.5 39.6981 19.709 38.6652L26.0287 20.8721L30.9057 34.927C34.0041 33.3531 36.9877 31.3241 39.7787 28.9058C40.0082 28.7091 40.2336 28.5123 40.459 28.3074L32.9016 8.00577Z" fill="#313131"/>
<path d="M63.3444 27.1477C62.2132 26.996 61.1067 26.7911 60.0329 26.5288C58.201 29.0373 56.2829 31.3859 54.3075 33.5296C53.7255 34.1649 53.1313 34.7839 52.5288 35.3946V60H63.6477V27.1846C63.5452 27.1723 63.4427 27.16 63.3403 27.1477H63.3444Z" fill="#313131"/>
</svg>
