<svg width="141" height="23" viewBox="0 0 141 23" fill="none" xmlns="http://www.w3.org/2000/svg">
<path d="M140.927 6.82092C140.663 5.95981 139.748 5.47524 138.882 5.73758C137.443 6.18049 136.085 6.22524 134.922 6.02616C135.808 4.41814 135.821 2.79468 134.952 1.56012C134.136 0.398078 132.671 -0.191428 131.221 0.0523994C129.776 0.299313 128.661 1.31783 128.247 2.77925C127.845 4.19438 128.353 5.72678 129.64 6.9845C129.799 7.14036 129.969 7.29005 130.154 7.43512C128.995 9.04468 127.75 10.4228 126.422 11.5663C125.27 12.5617 124.055 13.3765 122.781 14.0138C122.352 14.2283 121.912 14.4243 121.467 14.5987C120.94 14.8055 120.4 14.9845 119.852 15.1342C116.286 16.1033 113.598 15.4089 113.541 15.395C113.531 15.3934 113.524 15.3888 113.514 15.3888C112.655 15.1635 111.77 15.6697 111.529 16.5277C111.311 17.2947 111.682 18.0863 112.369 18.4305C112.458 18.4768 112.557 18.5154 112.659 18.5447C112.744 18.5678 114.028 18.9197 116.033 18.9197C116.243 18.9197 116.461 18.9166 116.687 18.9073C117.545 18.8765 118.511 18.7762 119.55 18.5647C119.862 18.503 120.179 18.4305 120.504 18.3456C122.543 17.8163 125.043 16.7793 127.625 14.7823C128.624 14.0092 129.638 13.0925 130.638 12.0046C131.469 11.1049 132.291 10.0879 133.097 8.94129C133.642 9.10795 134.224 9.2345 134.833 9.31629C136.36 9.51228 138.064 9.41042 139.842 8.86413C140.706 8.60024 141.193 7.68511 140.927 6.82246V6.82092ZM132.036 4.4845C132.004 4.5416 131.971 4.60024 131.939 4.65734C131.937 4.65271 131.934 4.65117 131.931 4.64808C131.495 4.22215 131.35 3.84252 131.396 3.66968C131.486 3.36104 131.636 3.29623 131.769 3.27308C131.801 3.26845 131.832 3.26536 131.864 3.26536C132.03 3.26536 132.201 3.33172 132.273 3.43512C132.371 3.57555 132.336 3.95209 132.036 4.48295V4.4845Z" fill="#6D47EE"/>
<path d="M127.958 15.6742C126.325 16.9073 124.597 17.8733 122.797 18.5631H124.363L125.77 22.5276H129.19V18.9798L127.958 15.6742ZM116.033 19.8301C114.014 19.8301 112.669 19.4921 112.42 19.4227C112.287 19.3857 112.162 19.3409 112.046 19.2869L110.86 22.4258L110.821 22.5292H115.399L116.358 19.827C116.253 19.8286 116.144 19.8301 116.033 19.8301V19.8301ZM123.233 3.01221H118.184L113.838 14.5323C114.179 14.6079 115.914 14.9443 118.256 14.5554L120.64 7.85634L122.48 13.148C123.649 12.5554 124.774 11.7915 125.827 10.881C125.914 10.807 125.999 10.7329 126.084 10.6557L123.233 3.01221V3.01221Z" fill="#040404"/>
<path d="M0 3.05396V22.5864H4.3877V15.2854H10.0432C10.1096 13.824 10.507 12.4799 11.164 11.3194H4.35987V7.18667H12.6127V3.05396H0ZM11.6186 15.2854V14.2484C11.5552 14.5833 11.5135 14.929 11.4949 15.2854H11.6186Z" fill="#040404"/>
<path d="M18.7689 8.48145C15.1774 8.48145 12.2677 10.8024 11.6199 14.25C11.5566 14.5848 11.5148 14.9305 11.4963 15.287C11.4885 15.4321 11.4839 15.5787 11.4839 15.7284C11.4839 19.9706 14.6858 23.0015 18.7704 23.0015C22.8551 23.0015 26.057 19.9722 26.057 15.7284C26.057 11.4845 22.8829 8.48299 18.7704 8.48299L18.7689 8.48145ZM18.7689 19.1435C17.1966 19.1435 15.6783 18.0139 15.6783 15.7268C15.6783 13.4398 17.1966 12.3379 18.7689 12.3379C20.3412 12.3379 21.8594 13.412 21.8594 15.7268C21.8594 18.0416 20.3691 19.1435 18.7689 19.1435V19.1435Z" fill="#040404"/>
<path d="M34.3083 8.75757C33.2044 8.75757 31.4651 9.19893 30.7478 10.7421V8.89646H26.6909V22.5878H30.8854V16.6094C30.8854 13.8826 32.4036 12.8903 34.0872 12.8903C34.2016 12.8903 34.3161 12.8918 34.4336 12.8995V8.76065C34.3918 8.76065 34.3501 8.75911 34.3083 8.75911V8.75757Z" fill="#040404"/>
<path d="M56.2392 15.7006C56.2392 14.3101 56.502 13.0247 56.9813 11.8919C56.3057 9.49379 54.2587 8.48145 52.1391 8.48145C50.29 8.48145 48.965 9.08793 47.889 10.6296C47.1994 9.27928 45.791 8.48145 43.8306 8.48145C42.3402 8.48145 40.5746 9.25305 39.8835 10.4645V8.89503H35.8823V22.5864H40.0783V14.7083C40.0783 13.4676 40.8792 12.3379 42.3417 12.3379C43.8043 12.3379 44.5495 13.358 44.5495 14.6527V22.5864H48.6898V14.6805C48.6898 13.4676 49.4907 12.3379 50.9811 12.3379C52.4715 12.3379 53.161 13.358 53.161 14.6527V22.5864H57.2178V20.0092C56.5886 18.7592 56.2392 17.2993 56.2392 15.699V15.7006Z" fill="#040404"/>
<path d="M64.5045 22.9722C60.4755 22.9722 57.688 19.9135 57.688 15.699C57.688 11.4845 60.3101 8.48145 64.3669 8.48145C66.8236 8.48145 67.8997 9.83175 68.1764 10.4645V8.89503H72.2332V20.1358C72.2332 21.4027 72.3167 22.2839 72.343 22.5879H68.314C68.2583 22.2855 68.2042 21.5416 68.2042 20.9629V20.8256C67.5966 22.1481 66.2176 22.9753 64.5061 22.9753L64.5045 22.9722ZM65.0565 19.3626C66.7401 19.3626 68.1749 18.0401 68.1749 15.7253C68.1749 13.4105 66.768 12.1157 65.0565 12.1157C63.345 12.1157 61.9103 13.3549 61.9103 15.7253C61.9103 18.0956 63.3172 19.3626 65.0565 19.3626V19.3626Z" fill="#040404"/>
<path d="M78.1129 2.64185V22.5863H73.9185V2.64185H78.1129Z" fill="#040404"/>
<path d="M81.3825 2.2561C82.7631 2.2561 83.867 3.35796 83.867 4.70826C83.867 6.05857 82.7631 7.16042 81.3825 7.16042C80.0018 7.16042 78.9536 6.05857 78.9536 4.70826C78.9536 3.35796 80.0575 2.2561 81.3825 2.2561V2.2561ZM83.5083 8.89499V22.5864H79.3138V8.89499H83.5083Z" fill="#040404"/>
<path d="M95.3093 18.9784H89.759L95.0109 13.4614C95.2304 12.4799 95.5938 11.5802 96.0792 10.7839V8.89502H84.8456V12.4768H90.7237L84.6802 18.8966V22.5879H96.189V20.7855C95.8319 20.233 95.535 19.628 95.3077 18.9784H95.3093Z" fill="#040404"/>
<path d="M110.86 22.4274L110.821 22.5292H110.869C110.866 22.4999 110.863 22.4659 110.86 22.4274ZM106.707 10.4659C106.432 9.83322 105.354 8.48291 102.898 8.48291C98.8394 8.48291 96.2173 11.6233 96.2173 15.7005C96.2173 19.7777 99.0048 22.9736 103.034 22.9736C104.745 22.9736 106.124 22.1465 106.732 20.824V20.9628C106.732 21.5416 106.788 22.2854 106.842 22.5878H109.246L109.501 21.9166L110.761 18.5801V8.89495H106.704V10.4644L106.707 10.4659ZM103.589 19.3656C101.85 19.3656 100.443 17.9891 100.443 15.7283C100.443 13.4675 101.795 12.1187 103.589 12.1187C105.382 12.1187 106.707 13.3595 106.707 15.7283C106.707 18.0971 105.273 19.3656 103.589 19.3656Z" fill="#040404"/>
<path d="M134.717 10.2191C134.29 10.162 133.873 10.0848 133.468 9.98608C132.776 10.9305 132.053 11.8148 131.308 12.6219C131.088 12.8611 130.864 13.0941 130.637 13.324V22.5879H134.831V10.233C134.793 10.2284 134.754 10.2237 134.715 10.2191H134.717Z" fill="#040404"/>
</svg>
