<svg width="355" height="302" viewBox="0 0 355 302" fill="none" xmlns="http://www.w3.org/2000/svg">
<path d="M309.363 111.857C307.044 104.303 299.018 100.052 291.425 102.353C278.802 106.239 266.897 106.631 256.701 104.885C264.47 90.7776 264.579 76.535 256.959 65.7041C249.8 55.5095 236.96 50.3377 224.242 52.4768C211.565 54.643 201.789 63.5785 198.156 76.3996C194.63 88.8145 199.091 102.258 210.372 113.292C211.768 114.66 213.26 115.973 214.887 117.246C204.718 131.366 193.803 143.456 182.156 153.488C172.055 162.221 161.398 169.369 150.226 174.961C146.457 176.843 142.606 178.562 138.701 180.092C134.078 181.906 129.346 183.477 124.533 184.79C93.2666 193.292 69.6883 187.2 69.1866 187.078C69.1052 187.064 69.0374 187.024 68.956 187.024C61.4175 185.047 53.662 189.488 51.5469 197.015C49.6351 203.744 52.8892 210.689 58.9092 213.708C59.6956 214.114 60.5633 214.453 61.4582 214.71C62.2039 214.913 73.4575 218 91.043 218C92.8869 218 94.7987 217.973 96.7782 217.892C104.303 217.621 112.777 216.741 121.889 214.886C124.628 214.345 127.407 213.708 130.254 212.964C148.138 208.32 170.062 199.222 192.705 181.703C201.464 174.92 210.358 166.878 219.131 157.333C226.412 149.44 233.625 140.518 240.689 130.459C245.475 131.921 250.573 133.032 255.915 133.749C269.311 135.469 284.252 134.575 299.845 129.782C307.424 127.467 311.695 119.439 309.363 111.871V111.857ZM231.388 91.3598C231.103 91.8607 230.818 92.3751 230.533 92.8761C230.52 92.8355 230.493 92.8219 230.466 92.7948C226.642 89.0582 225.368 85.7277 225.774 84.2114C226.561 81.5036 227.876 80.935 229.042 80.7319C229.327 80.6913 229.598 80.6642 229.883 80.6642C231.333 80.6642 232.838 81.2464 233.462 82.1535C234.33 83.3855 234.018 86.6889 231.388 91.3462V91.3598Z" fill="#6D47EE"/>
<path d="M195.2 189.589C180.89 200.455 165.74 208.969 149.966 215.048H163.694L176.025 249.986H206V218.72L195.2 189.589ZM90.6806 226.213C72.9829 226.213 61.1935 223.235 59.0118 222.623C57.8464 222.297 56.7487 221.902 55.7324 221.426L45.3388 249.089L45 250H85.1246L93.5263 226.186C92.6048 226.2 91.6563 226.213 90.6806 226.213ZM153.788 78H109.53L71.4381 179.524C74.4329 180.191 89.6372 183.156 110.167 179.728L131.063 120.691L147.188 167.325C157.433 162.103 167.298 155.371 176.526 147.347C177.285 146.694 178.031 146.041 178.776 145.361L153.788 78Z" fill="#040404"/>
<path d="M254.991 142.034C251.227 141.536 247.544 140.862 243.971 140C237.875 148.244 231.492 155.963 224.919 163.008C222.982 165.096 221.005 167.13 219 169.137V250H256V142.155C255.659 142.115 255.318 142.074 254.977 142.034H254.991Z" fill="#040404"/>
</svg>
